<svg width="454.54mm" height="367.32mm" version="1.1"
     viewBox="0 0 454.54 367.32" xmlns="http://www.w3.org/2000/svg">
    <g transform="translate(-184.27 -406.96)">
        <path d="m431.75 406.96a15.12 15.12 0 0 0-1.9863 0.16406c-43.973 0.83558-83.258 26.556-102.12 65.721-24.668 0.64429-46.036 15.455-56.479 37.322-49.694 9.2103-86.846 52.416-86.898 103.76a15.12 15.12 0 0 0 0 0.0234c1e-3 58.414 47.678 106.08 106.09 106.08h65.891a15.12 15.12 0 1 0 0-30.236h-65.891c-42.065 1.5e-4 -75.843-33.772-75.855-75.834v-0.0156c0.0471-39.056 29.427-71.493 68.289-75.391a15.12 15.12 0 0 0 12.984-10.732c4.4181-14.875 17.934-24.976 33.447-25.004 1.812 0.0189 3.6168 0.17407 5.4043 0.47266a15.12 15.12 0 0 0 16.697-9.7207c12.376-33.857 44.439-56.32 80.484-56.377h0.0236c47.554 0.0151 85.789 38.228 85.822 85.785a15.12 15.12 0 0 0 15.109 15.111c42.052 0.0265 75.803 33.803 75.805 75.855-4e-3 42.048-33.756 75.821-75.805 75.85h-67.314a15.12 15.12 0 1 0 0 30.236h67.322a15.12 15.12 0 0 0 0.0156 0c4e-3 -4e-5 0.0119 0 0.0156 0a15.12 15.12 0 0 0 2.9746-0.30273 15.12 15.12 0 0 0 0.0137-8e-3c56.973-1.6761 103.01-48.419 103.02-105.78a15.12 15.12 0 0 0 0-8e-3c-2e-3 -53.69-40.43-97.822-92.311-104.68-6.928-57.399-55.472-102.3-114.68-102.3a15.12 15.12 0 0 0-0.0234 0c-0.0151 4e-5 -0.029-4e-5 -0.043 0zm-20.484 128.86a15.12 15.12 0 0 0-12.24 6.2891l-61.143 61.145a15.12 15.12 0 1 0 21.377 21.385l37.049-37.049v171.36a15.12 15.12 0 1 0 30.236 0v-171.37l37.051 37.051a15.12 15.12 0 1 0 21.377-21.385l-62.855-62.857a15.12 15.12 0 0 0-0.16406-0.1543 15.12 15.12 0 0 0-0.0332-0.0293 15.12 15.12 0 0 0-10.654-4.3926z"
              color="#000000" color-rendering="auto" dominant-baseline="auto"
              image-rendering="auto"
              shape-rendering="auto" solid-color="#000000"
              style="font-feature-settings:normal;font-variant-alternates:normal;font-variant-caps:normal;font-variant-ligatures:normal;font-variant-numeric:normal;font-variant-position:normal;isolation:auto;mix-blend-mode:normal;paint-order:normal;shape-padding:0;text-decoration-color:#000000;text-decoration-line:none;text-decoration-style:solid;text-indent:0;text-orientation:mixed;text-transform:none;white-space:normal"/>
    </g>
</svg>
