<?xml version="1.0" encoding="UTF-8"?>
<svg width="43.24mm" height="46.137mm" version="1.1" viewBox="0 0 43.24 46.137" xmlns="http://www.w3.org/2000/svg">
 <g transform="translate(-282.27 -159.03)">
  <path d="m316.98 185.32 1.421-4.5107-2.94 1.6036z" fill="#ffcbe6"/>
  <path d="m316.98 185.32 4.4779-0.41818-3.0569-4.0926z" fill="#f090c2"/>
  <path d="m315.46 182.41-1.1269 5.1514 2.6458-2.2442z" fill="#ffc5e4"/>
  <path d="m318.13 187.68 3.3204-2.7805-4.4779 0.41818z" fill="#f08ec1"/>
  <path d="m318.13 187.68 3.2702-1.1101 0.0501-1.6704z" fill="#c0528a"/>
  <path d="m309.31 186.49 5.0203 1.0755 1.1269-5.1514z" fill="#ffdaee"/>
  <path d="m314.33 187.56 3.8034 0.11812-1.1576-2.3624z" fill="#f59dcb"/>
  <path d="m309.16 189.29 5.1736-1.7245-5.0203-1.0755z" fill="#ffbfe0"/>
  <path d="m305.9 191.23 3.2545-1.944 0.15322-2.8z" fill="#ffc0e1"/>
  <path d="m314.54 192.29 3.5908-4.6066-3.8034-0.11812z" fill="#f08ec1"/>
  <path d="m305.9 191.23 2.7584 1.3869 0.49609-3.3309z" fill="#f396c6"/>
  <path d="m309.16 189.29 5.3862 3.0002-0.21261-4.7247z" fill="#f8a6d1"/>
  <path d="m309.16 189.29 2.6589 4.8172 2.7273-1.817z" fill="#ef8dc0"/>
  <path d="m308.66 192.62 3.155 1.4862-2.6589-4.8172z" fill="#f08ec1"/>
  <path d="m301.22 194.04 3.781-0.33207 0.90204-2.4722z" fill="#f192c3"/>
  <path d="m316.93 194.49 1.2048-6.8036-3.5908 4.6066z" fill="#be4f88"/>
  <path d="m309.31 186.49-8.0907 7.5484 4.683-2.8043z" fill="#ffc5e3"/>
  <path d="m305 193.7 3.6604-1.0853-2.7584-1.3869z" fill="#f08ec1"/>
  <path d="m311.82 194.11 2.6564 0.42726 0.0709-2.2442z" fill="#c3558d"/>
  <path d="m314.47 194.53 2.4568-0.0472-2.386-2.197z" fill="#ba4a83"/>
  <path d="m315.59 195.38 1.3381-0.88951-2.4568 0.0472z" fill="#94436c"/>
  <path d="m305 193.7 2.5391 2.4388 1.1214-3.5242z" fill="#bb4b84"/>
  <path d="m316.93 194.49 4.475-7.9137-3.2702 1.1101z" fill="#bf5189"/>
  <path d="m307.54 196.14 4.2763-2.0379-3.155-1.4862z" fill="#be4f87"/>
  <path d="m304.72 197.96 2.8238-1.8147-2.5391-2.4388z" fill="#ba4a83"/>
  <path d="m301.22 194.04 3.4963 3.9215 0.28472-4.2536z" fill="#c75b93"/>
  <g fill="#ba4a83">
   <path d="m301.22 194.04 2.2679 4.7483 1.2284-0.82683z"/>
   <path d="m299.59 195.84 3.8991 2.9422-2.2679-4.7483z"/>
   <path d="m299.59 195.84 2.4054 4.0759 1.4936-1.1336z"/>
  </g>
  <path d="m312.68 196.47 1.7954-1.9371-2.6564-0.42726z" fill="#75c074"/>
  <path d="m312.68 196.47 2.9142-1.0949-1.1188-0.84227z" fill="#53af51"/>
  <path d="m310.57 197.77 2.1025-1.2993-0.86103-2.3644z" fill="#75c074"/>
  <path d="m307.54 196.14 3.0348 1.6258 1.2415-3.6637z" fill="#74c073"/>
  <path d="m304.72 197.96 2.764 0.59058 0.0598-2.4053z" fill="#74c073"/>
  <path d="m310.57 197.77 2.3151 1.063-0.2126-2.3623z" fill="#42a741"/>
  <path d="m307.48 198.55 3.0947-0.77957-3.0348-1.6258z" fill="#74c073"/>
  <path d="m312.68 196.47 2.246 3.148 0.66817-4.2429z" fill="#156f13"/>
  <path d="m312.89 198.83 2.0334 0.7857-2.246-3.148z" fill="#259823"/>
  <path d="m301.99 199.92 1.5645 0.66176-0.0709-1.7954z" fill="#116610"/>
  <path d="m307.48 198.55 2.4805 2.2915 0.61421-3.0711z" fill="#34a032"/>
  <path d="m304.72 197.96 1.3465 3.3309 1.4174-2.7403z" fill="#44a842"/>
  <path d="m303.56 200.58 1.1576-2.6222-1.2284 0.82683z" fill="#249323"/>
  <path d="m309.96 200.84 2.9293-2.008-2.3151-1.063z" fill="#259923"/>
  <path d="m303.56 200.58 2.5041 0.70871-1.3465-3.3309z" fill="#2c9c2a"/>
  <path d="m312.95 201.72 1.9711-2.1048-2.0334-0.7857z" fill="#003b00"/>
  <path d="m309.96 200.84 2.9916 0.88244-0.0623-2.8904z" fill="#0f620f"/>
  <path d="m306.06 201.29 3.8979-0.44885-2.4805-2.2915z" fill="#269924"/>
  <path d="m306.06 201.29 2.5129 1.7365 1.385-2.1854z" fill="#0c590b"/>
  <path d="m301.99 199.92-0.16705 5.2452 1.7316-4.5834z" fill="#023802"/>
  <path d="m308.57 203.03 4.3765-1.303-2.9916-0.88244z" fill="#034103"/>
  <path d="m301.83 205.16 4.2356-3.8747-2.5041-0.70871z" fill="#003900"/>
  <path d="m301.83 205.16 6.7486-2.1381-2.5129-1.7365z" fill="#003900"/>
  <path d="m323.97 186.67 0.54335-2.4805-1.7009 0.75595z" fill="#62b660"/>
  <path d="m321.4 186.57 2.5648 0.0943-1.1576-1.7245z" fill="#73bd72"/>
  <path d="m325.51 187.79-1.0012-3.6056-0.54335 2.4805z" fill="#269424"/>
  <path d="m322.39 189.83 1.5828-3.1656-2.5648-0.0943z" fill="#61b660"/>
  <path d="m322.39 189.83 3.1273-2.0404-1.5445-1.1251z" fill="#1c821a"/>
  <path d="m323.74 191.9 1.7707-4.1093-3.1273 2.0404z" fill="#095309"/>
  <path d="m321.4 186.57-1.0732 5.6931 2.0552-2.4332z" fill="#58b156"/>
  <path d="m320.33 192.27 3.4119-0.36438-1.3566-2.0688z" fill="#0b560a"/>
  <path d="m321.4 186.57-4.475 7.9137 3.4018-2.2206z" fill="#57b155"/>
  <path d="m314.92 199.62 2.0713 0.43431-1.4032-4.6772z" fill="#003900"/>
  <path d="m316.99 200.05-0.0651-5.5667-1.3381 0.88951z" fill="#003900"/>
  <path d="m316.99 200.05 3.3367-7.7873-3.4018 2.2206z" fill="#044404"/>
  <path d="m316.99 200.05 6.7486-8.1517-3.4119 0.36438z" fill="#003900"/>
  <path d="m312.95 201.72 4.0424-1.6704-2.0713-0.43431z" fill="#013801"/>
  <path d="m291.87 194.01-0.16704-2.7729-0.83522 1.4032z" fill="#146a13"/>
  <path d="m291.87 194.01 2.0379-2.1048-2.205-0.66815z" fill="#239421"/>
  <path d="m294.28 194.24 1.3364-1.8375-1.7038-0.50116z" fill="#74c073"/>
  <path d="m291.87 194.01 2.4054 0.23387-0.36749-2.3386z" fill="#2f9d2d"/>
  <path d="m295.98 196.81-0.3675-4.4099-1.3364 1.8375z" fill="#75c074"/>
  <path d="m295.98 196.81 3.6081-0.96885-3.9756-3.4411z" fill="#75c074"/>
  <path d="m290.87 192.64-0.13364 4.5436 1.1359-3.1738z" fill="#043704"/>
  <path d="m292.77 197.71 1.5034-3.4745-2.4054-0.23387z" fill="#249722"/>
  <path d="m290.73 197.18 2.0379 0.53454-0.90203-3.7084z" fill="#003900"/>
  <path d="m292.77 197.71 3.2072-0.90204-1.7038-2.5725z" fill="#2a9b28"/>
  <path d="m295.98 196.81 2.5391 2.3052 1.0691-3.274z" fill="#75c074"/>
  <path d="m298.52 199.12 3.4745 0.80183-2.4054-4.0759z" fill="#74c073"/>
  <path d="m295.98 196.81 0.80181 5.1784 1.7372-2.8732z" fill="#309f2e"/>
  <path d="m292.77 197.71 4.009 4.2763-0.80181-5.1784z" fill="#259923"/>
  <path d="m294.48 202.79 2.3052-0.8018-4.009-4.2763z" fill="#003900"/>
  <path d="m296.78 201.99 5.2118-2.0713-3.4745-0.80183z" fill="#2f9e2d"/>
  <path d="m290.73 197.18 3.7418 5.6127-1.7038-5.0781z" fill="#003900"/>
  <path d="m294.48 202.79 3.0068 1.9043-0.70158-2.7061z" fill="#003900"/>
  <path d="m296.78 201.99 5.0447 3.1738 0.16705-5.2452z" fill="#259923"/>
  <path d="m297.48 204.7 4.3431 0.46771-5.0447-3.1738z" fill="#003a00"/>
  <path d="m284.2 178.32 0.88533 2.1214 0.31738-2.1047z" fill="#43a842"/>
  <path d="m283.85 180.27 1.2361 0.16704-0.88533-2.1214z" fill="#249722"/>
  <path d="m284.2 178.32-1.4366 2.4221 1.0858-0.46773z" fill="#249722"/>
  <path d="m285.09 180.44 2.4388 0.93545-2.1215-3.0402z" fill="#72be71"/>
  <path d="m283.65 182.85 0.20045-2.5725-1.0858 0.46773z" fill="#167214"/>
  <path d="m283.65 182.85 1.4366-2.4054-1.2361-0.16704z" fill="#259923"/>
  <path d="m283.65 182.85 1.6036 0.40091-0.16705-2.8063z" fill="#2d9c2b"/>
  <path d="m285.26 183.25 2.2718-1.8709-2.4388-0.93545z" fill="#74bf73"/>
  <path d="m282.77 180.74-0.49358 4.3886 1.3789-2.2839z" fill="#167214"/>
  <path d="m287.33 185.69 0.20045-4.3097-2.2718 1.8709z" fill="#74c073"/>
  <path d="m287.33 185.69 1.6704-0.13363-1.47-4.1761z" fill="#75c074"/>
  <path d="m283.65 182.85 0.60135 3.2741 1.0023-2.8732z" fill="#259923"/>
  <path d="m282.27 185.13 1.9803 0.99021-0.60135-3.2741z" fill="#0f610e"/>
  <path d="m284.25 186.12 3.0736-0.43432-2.0713-2.4388z" fill="#58b157"/>
  <path d="m285.56 188.73 1.7707-3.0402-3.0736 0.43432z" fill="#259923"/>
  <path d="m287.33 185.69 1.8375 3.675-0.16704-3.8086z" fill="#238c22"/>
  <path d="m285.56 188.73 3.6081 0.63478-1.8375-3.675z" fill="#259923"/>
  <path d="m285.56 188.73 2.1382 2.372 1.47-1.7372z" fill="#259923"/>
  <path d="m284.16 192.22 3.5315-1.119-2.1382-2.372z" fill="#013d01"/>
  <path d="m287.69 191.1 3.1738 1.5368-1.7038-3.274z" fill="#003900"/>
  <path d="m282.27 185.13 3.2832 3.5961-1.3029-2.6059z" fill="#044403"/>
  <path d="m282.27 185.13 1.8899 7.087 1.3933-3.491z" fill="#044404"/>
  <path d="m287.69 191.1 3.0402 6.0804 0.13364-4.5436z" fill="#003900"/>
  <path d="m284.16 192.22 6.5717 4.9614-3.0402-6.0804z" fill="#003900"/>
  <path d="m284.16 192.22 5.4024 7.0328 1.1693-2.0713z" fill="#003a00"/>
  <path d="m289.57 199.25 4.9111 3.5413-3.7418-5.6127z" fill="#003900"/>
  <path d="m285.89 177.02 2.5012 1.9007-2.0001-2.6524z" fill="#f8a9d3"/>
  <path d="m285.41 178.34 2.9856 0.581-2.5012-1.9007z" fill="#e583b6"/>
  <path d="m288.39 178.92 4.5121 0.63784-6.5122-3.2902z" fill="#fed7ec"/>
  <path d="m287.53 181.38 1.4311-0.2858-0.56697-2.1734z" fill="#de79ad"/>
  <path d="m285.41 178.34 2.1215 3.0402 0.86417-2.4592z" fill="#cd6399"/>
  <path d="m288.96 181.09 3.9451-1.5355-4.5121-0.63784z" fill="#f498c8"/>
  <path d="m288.96 181.09 3.5908 2.3387 0.35436-3.8743z" fill="#f293c4"/>
  <path d="m292.55 183.43 4.5998 1.5218-4.2454-5.3961z" fill="#ffdbee"/>
  <path d="m287.53 181.38 1.47 4.1761-0.0388-4.4619z" fill="#bd4e86"/>
  <path d="m289 185.55 3.5519-2.1232-3.5908-2.3387z" fill="#dc77ab"/>
  <path d="m289 185.55 3.5283 1.7747 0.0236-3.8979z" fill="#cc6298"/>
  <path d="m292.53 187.33 4.6234-2.3761-4.5998-1.5218z" fill="#feb5db"/>
  <path d="m292.53 187.33 3.5435 0.96856 1.0799-3.3446z" fill="#fdb3d9"/>
  <path d="m289.16 189.36 3.3613-2.0339-3.5283-1.7747z" fill="#ba4a83"/>
  <path d="m299.14 191.13-1.9912-6.1795-1.0799 3.3446z" fill="#ffbee0"/>
  <path d="m289.16 189.36 2.5391 1.8709 0.8222-3.9048z" fill="#ba4a83"/>
  <path d="m297.06 191.04 2.0789 0.0945-3.071-2.8348z" fill="#f8a4d0"/>
  <path d="m292.53 187.33 1.3828 4.5729 2.1608-3.6044z" fill="#ef8dc0"/>
  <path d="m291.7 191.23 2.205 0.66815-1.3828-4.5729z" fill="#c55991"/>
  <path d="m293.91 191.9 3.153-0.86403-0.99219-2.7403z" fill="#eb88bb"/>
  <path d="m293.91 191.9 1.7038 0.50116 1.4491-1.3652z" fill="#ca5e95"/>
  <path d="m289.16 189.36 1.7038 3.274 0.83522-1.4032z" fill="#b94982"/>
  <path d="m297.06 191.04 2.1734 1.7718-0.0945-1.6773z" fill="#f6a1cd"/>
  <path d="m295.61 192.4 3.6225 0.40657-2.1734-1.7718z" fill="#d76fa5"/>
  <path d="m295.61 192.4 3.9756 3.4411-0.35316-3.0345z" fill="#c95d95"/>
  <path d="m299.59 195.84-0.44766-4.7118 0.0945 1.6773z" fill="#c95d95"/>
  <path d="m297.82 177.15 5.0554-6.9453-6.4965 5.646z" fill="#ffebf6"/>
  <path d="m301.03 179.04 1.8426-8.8352-5.0554 6.9453z" fill="#ffe9f5"/>
  <path d="m294.63 177.85 3.1892-0.70869-1.441-1.2993z" fill="#ffcfe8"/>
  <path d="m302.87 170.2 1.8899 8.8824 2.3624-1.5828z" fill="#ffeaf6"/>
  <path d="m301.03 179.04 3.7325 0.0473-1.8899-8.8824z" fill="#ffeaf6"/>
  <path d="m294.63 177.85 3.0474 3.2128 0.14174-3.9215z" fill="#ffbade"/>
  <path d="m297.68 181.07 3.3546-2.0316-3.2128-1.8899z" fill="#ffbfe1"/>
  <path d="m304.76 179.08 3.9792 1.7592-1.6169-3.342z" fill="#feb9dd"/>
  <path d="m292.9 179.56 4.772 1.5119-3.0474-3.2128z" fill="#ed8bbe"/>
  <path d="m304.76 179.08 1.7009 4.2522 2.2784-2.493z" fill="#ffb8dd"/>
  <path d="m306.46 183.34 3.1892 0.59059-0.91082-3.0836z" fill="#f294c5"/>
  <path d="m297.68 181.07-0.52651 3.8842 1.2352-0.75406z" fill="#d770a4"/>
  <path d="m298.38 184.2 2.6458-5.1617-3.3546 2.0316z" fill="#feb6dc"/>
  <g fill="#ffb8dd">
   <path d="m298.38 184.2 3.26 1.0276-0.6142-6.1894z"/>
   <path d="m301.64 185.23 3.1183-6.1421-3.7325-0.0473z"/>
   <path d="m301.64 185.23 4.8192-1.8899-1.7009-4.2522z"/>
  </g>
  <path d="m292.9 179.56 4.2454 5.3961 0.52651-3.8842z" fill="#d46ca1"/>
  <path d="m301.64 185.23 3.26 1.1812 1.5592-3.0711z" fill="#f08ec1"/>
  <path d="m306.46 183.34 2.8463 3.1531 0.34287-2.5625z" fill="#ec89bc"/>
  <path d="m304.9 186.41 4.4054 0.082-2.8463-3.1531z" fill="#ef8dc0"/>
  <path d="m296.38 175.85-3.4727 3.7089 1.7245-1.7009z" fill="#ffbade"/>
  <path d="m297.15 184.95 4.4953 0.27357-3.26-1.0276z" fill="#ec88bc"/>
  <path d="m301.17 190.33 3.7325-3.9215-3.26-1.1812z" fill="#f08ec1"/>
  <path d="m297.15 184.95 4.0228 5.3762 0.47247-5.1027z" fill="#e684b7"/>
  <path d="m297.15 184.95 1.9912 6.1795 2.0316-0.80321z" fill="#bb4e86"/>
  <path d="m299.23 192.81 1.9371-2.4805-2.0316 0.80321z" fill="#bb4b84"/>
  <path d="m299.23 192.81 1.9844 1.2284-0.0473-3.7089z" fill="#ba4a83"/>
  <path d="m299.59 195.84 1.6312-1.8061-1.9844-1.2284z" fill="#ba4a83"/>
  <path d="m301.22 194.04 3.6853-7.6304-3.7325 3.9215z" fill="#c0528a"/>
  <path d="m301.22 194.04 8.0907-7.5484-4.4054-0.082z" fill="#ba4a83"/>
  <path d="m306.75 163.16 3.2644 1.211 2.0273-2.9592z" fill="#f097c6"/>
  <path d="m312.32 166.33-0.28348-4.9137-2.0273 2.9592z" fill="#feeaf5"/>
  <path d="m306.75 163.16 1.7954 4.1577 1.469-2.9467z" fill="#de80b0"/>
  <path d="m310.01 164.37 1.3364 3.2406 0.9744-1.2861z" fill="#ffe9f5"/>
  <path d="m308.54 167.32 2.8054 0.29391-1.3364-3.2406z" fill="#ef8fc0"/>
  <path d="m311.35 167.61 2.3386 2.372-1.3642-3.6581z" fill="#ffc7e4"/>
  <path d="m313.69 169.98 2.51 0.26338-3.8742-3.9215z" fill="#f4deea"/>
  <path d="m311.82 171.22 1.8709-1.2361-2.3386-2.372z" fill="#f7a1ce"/>
  <path d="m308.54 167.32 3.2731 3.9021-0.46773-3.6082z" fill="#e17db1"/>
  <path d="m313.69 169.98 2.4054 2.1716 0.10462-1.9082z" fill="#ffc9e5"/>
  <path d="m311.82 171.22 4.2763 0.93544-2.4054-2.1716z" fill="#f6a0cd"/>
  <path d="m316.09 172.16 4.3096 2.6748-4.205-4.583z" fill="#fecee8"/>
  <path d="m316.09 172.16 2.6727 3.4745 1.6369-0.79971z" fill="#ffcbe7"/>
  <path d="m315.39 177.1 3.3743-1.47-2.6727-3.4745z" fill="#f08ec1"/>
  <path d="m311.82 171.22 3.5747 5.8799 0.70158-4.9445z" fill="#e27fb2"/>
  <path d="m320.09 178.56 0.30711-3.7325-1.6369 0.79971z" fill="#ffcae6"/>
  <path d="m320.09 178.56 2.6792 1.4104-2.3721-5.1428z" fill="#ffc6e4"/>
  <path d="m315.39 177.1 4.7041 1.4628-1.3298-2.9328z" fill="#f08ec1"/>
  <path d="m315.39 177.1 3.0068 3.7084 1.6973-2.2456z" fill="#f08ec1"/>
  <path d="m315.46 182.41 2.94-1.6036-3.0068-3.7084z" fill="#c1548c"/>
  <path d="m318.4 180.81 4.3765-0.83524-2.6792-1.4104z" fill="#f6a0cd"/>
  <path d="m318.4 180.81 3.0569 4.0926 1.3196-4.9278z" fill="#c4578f"/>
  <path d="m321.45 184.9 1.3571 0.0402-0.0375-4.968z" fill="#c4578f"/>
  <path d="m321.4 186.57 1.4072-1.6302-1.3571-0.0402z" fill="#a94679"/>
  <path d="m298.32 161.9 1.2361-1.4366-1.2361-0.26726z" fill="#fec9e5"/>
  <path d="m298.32 161.9 1.1359 0.8352 0.10023-2.2718z" fill="#fec1e1"/>
  <path d="m299.45 162.73 1.9711-1.7372-1.8709-0.53454z" fill="#e586b7"/>
  <path d="m297.32 164.06 2.133-1.3237-1.1359-0.8352z" fill="#fec9e5"/>
  <path d="m297.32 164.06 2.5339 0.614-0.4009-1.9377z" fill="#f298c7"/>
  <path d="m299.85 164.67 1.5702-3.675-1.9711 1.7372z" fill="#c2558c"/>
  <path d="m297.35 165.78 2.5056-1.1025-2.5339-0.614z" fill="#ea8abc"/>
  <path d="m295.27 166.07 2.0835-0.2915-0.0283-1.7165z" fill="#fec4e3"/>
  <path d="m297.98 167.21 1.8709-2.5391-2.5056 1.1025z" fill="#c76195"/>
  <path d="m295.27 166.07 2.7183 1.1451-0.63477-1.4366z" fill="#f49bc9"/>
  <path d="m292.22 168.95 2.3915-0.1 0.65597-2.7821z" fill="#fccbe5"/>
  <path d="m294.61 168.85 3.3743-1.637-2.7183-1.1451z" fill="#f49bca"/>
  <path d="m295.24 170.89 2.7395-3.675-3.3743 1.637z" fill="#cb6097"/>
  <path d="m292.84 171.49 1.7707-2.6393-2.3915 0.1z" fill="#fdc9e4"/>
  <path d="m292.84 171.49 2.4054-0.60135-0.63477-2.038z" fill="#d66fa4"/>
  <path d="m289.74 171.69 3.1013-0.20101-0.6208-2.5393z" fill="#fed4ea"/>
  <path d="m290.8 174.26 2.0379-2.7729-3.1013 0.20101z" fill="#f8afd5"/>
  <path d="m290.8 174.26 2.1716 0.43431-0.13363-3.2072z" fill="#c65a92"/>
  <path d="m292.97 174.7 2.2718-3.8086-2.4054 0.60135z" fill="#bf5189"/>
  <path d="m287.39 174.73 3.4077-0.46771-1.0633-2.5719z" fill="#fed7ec"/>
  <path d="m287.39 174.73 1.8375 2.5056 1.5702-2.9734z" fill="#f193c4"/>
  <path d="m286.39 176.27 2.8397 0.96884-1.8375-2.5056z" fill="#dc79ac"/>
  <path d="m289.23 177.23 3.7418-2.539-2.1716-0.43431z" fill="#d36ba0"/>
  <path d="m289.23 177.23 3.6724 2.3214 0.0693-4.8604z" fill="#ba4a83"/>
  <path d="m301.43 161 5.3216 2.1633-3.0832-4.1344z" fill="#ffebf6"/>
  <path d="m302.97 166 3.7798-2.8348-5.3216-2.1633z" fill="#ffc5e3"/>
  <path d="m299.86 164.67 3.1121 1.3231-1.5419-4.9981z" fill="#ffcae6"/>
  <path d="m302.97 166 5.5751 1.3229-1.7954-4.1577z" fill="#ffc2e2"/>
  <path d="m297.98 167.21 4.983-1.2159-3.1121-1.3231z" fill="#ffbee0"/>
  <path d="m302.97 166 3.4963 4.016 2.0789-2.6931z" fill="#feb6db"/>
  <path d="m298.57 169.49 4.394-3.4963-4.983 1.2159z" fill="#ffb8dd"/>
  <path d="m302.87 170.2 3.5908-0.18898-3.4963-4.016z" fill="#f293c5"/>
  <path d="m298.57 169.49 4.2995 0.70871 0.0945-4.205z" fill="#f295c5"/>
  <path d="m295.24 170.89 3.3285-1.3946-0.58899-2.2803z" fill="#fec7e4"/>
  <path d="m306.46 170.01 5.352 1.209-3.2731-3.9021z" fill="#ffc4e2"/>
  <path d="m306.46 170.01 3.5435 3.071 1.8084-1.8621z" fill="#ffb8dd"/>
  <path d="m292.97 174.7 3.4033 1.1515-1.1315-4.9601z" fill="#f9a8d2"/>
  <path d="m296.38 175.85 2.197-6.3547-3.3285 1.3946z" fill="#f396c6"/>
  <path d="m306.46 170.01 0.66146 7.4886 2.8821-4.4176z" fill="#f08fc2"/>
  <path d="m292.97 174.7 1.6552 3.1595 1.7481-2.008z" fill="#e17eb1"/>
  <path d="m310.01 173.08 5.3832 4.0179-3.5747-5.8799z" fill="#ffc3e2"/>
  <path d="m296.38 175.85 6.4965-5.646-4.2995-0.70871z" fill="#e685b7"/>
  <path d="m302.87 170.2 4.2522 7.2997-0.66146-7.4886z" fill="#eb88bb"/>
  <path d="m312.46 178.37 2.9263-1.2738-5.3832-4.0179z" fill="#feb6dc"/>
  <path d="m307.12 177.5 5.3389 0.87408-2.4568-5.2917z" fill="#f08ec1"/>
  <path d="m292.97 174.7-0.0693 4.8604 1.7245-1.7009z" fill="#e582b5"/>
  <path d="m313.31 180.17 2.0759-3.0692-2.9263 1.2738z" fill="#ffb8dd"/>
  <path d="m308.74 180.84 3.722-2.468-5.3389-0.87408z" fill="#ea88bb"/>
  <path d="m315.46 182.41-0.0668-5.312-2.0759 3.0692z" fill="#ffb8dd"/>
  <path d="m308.74 180.84 4.5725-0.67258-0.85045-1.7954z" fill="#f08ec1"/>
  <path d="m309.65 183.93 3.6616-3.7562-4.5725 0.67258z" fill="#d2699f"/>
  <path d="m309.65 183.93 5.8043-1.5134-2.1427-2.2428z" fill="#d26a9f"/>
  <path d="m309.31 186.49 6.1472-4.0758-5.8043 1.5134z" fill="#d56ea3"/>
  <path d="m289.23 177.23 3.6724 2.3214-6.5122-3.2902z" fill="#fed7ec"/>
 </g>
</svg>
