<svg width="43.24mm" height="46.137mm" version="1.1" viewBox="0 0 43.24 46.137" xmlns="http://www.w3.org/2000/svg">
 <g transform="translate(-78.166 -114.43)" stroke-linecap="round" stroke-linejoin="round" stroke-width=".02">
  <g>
   <path d="m112.87 140.72 1.421-4.5107-2.94 1.6036z" fill="#ffcbe6" stroke="#ffcbe6"/>
   <path d="m112.87 140.72 4.4779-0.41818-3.0569-4.0926z" fill="#f090c2" stroke="#f090c2"/>
   <path d="m111.35 137.81-1.1269 5.1514 2.6458-2.2442z" fill="#ffc5e4" stroke="#ffc5e4"/>
   <path d="m114.03 143.08 3.3204-2.7805-4.4779 0.41818z" fill="#f08ec1" stroke="#f08ec1"/>
   <path d="m114.03 143.08 3.2702-1.1101 0.0501-1.6704z" fill="#c0528a" stroke="#c0528a"/>
   <path d="m105.2 141.89 5.0203 1.0755 1.1269-5.1514z" fill="#ffdaee" stroke="#ffdaee"/>
   <path d="m110.22 142.96 3.8034 0.11812-1.1576-2.3624z" fill="#f59dcb" stroke="#f59dcb"/>
   <path d="m105.05 144.69 5.1736-1.7245-5.0203-1.0755z" fill="#ffbfe0" stroke="#ffbfe0"/>
   <path d="m101.79 146.63 3.2545-1.944 0.15322-2.8z" fill="#ffc0e1" stroke="#ffc0e1"/>
   <path d="m110.44 147.69 3.5908-4.6066-3.8034-0.11812z" fill="#f08ec1" stroke="#f08ec1"/>
   <path d="m101.79 146.63 2.7584 1.3869 0.4961-3.3309z" fill="#f396c6" stroke="#f396c6"/>
   <path d="m105.05 144.69 5.3862 3.0002-0.21261-4.7247z" fill="#f8a6d1" stroke="#f8a6d1"/>
   <path d="m105.05 144.69 2.6589 4.8172 2.7273-1.817z" fill="#ef8dc0" stroke="#ef8dc0"/>
   <path d="m104.55 148.02 3.155 1.4862-2.6589-4.8172z" fill="#f08ec1" stroke="#f08ec1"/>
   <path d="m97.112 149.44 3.781-0.33207 0.90203-2.4722z" fill="#f192c3" stroke="#f192c3"/>
   <path d="m112.82 149.88 1.2048-6.8036-3.5908 4.6066z" fill="#be4f88" stroke="#be4f88"/>
   <path d="m105.2 141.89-8.0907 7.5484 4.683-2.8043z" fill="#ffc5e3" stroke="#ffc5e3"/>
   <path d="m100.89 149.1 3.6604-1.0853-2.7584-1.3869z" fill="#f08ec1" stroke="#f08ec1"/>
   <path d="m107.71 149.5 2.6564 0.42726 0.0709-2.2442z" fill="#c3558d" stroke="#c3558d"/>
   <path d="m110.36 149.93 2.4568-0.0472-2.386-2.197z" fill="#ba4a83" stroke="#ba4a83"/>
   <path d="m111.48 150.77 1.3381-0.88951-2.4568 0.0472z" fill="#94436c" stroke="#94436c"/>
   <path d="m100.89 149.1 2.5391 2.4388 1.1213-3.5242z" fill="#bb4b84" stroke="#bb4b84"/>
   <path d="m112.82 149.88 4.475-7.9137-3.2702 1.1101z" fill="#bf5189" stroke="#bf5189"/>
   <path d="m103.43 151.54 4.2763-2.0379-3.155-1.4862z" fill="#be4f87" stroke="#be4f87"/>
   <path d="m100.61 153.36 2.8238-1.8147-2.5391-2.4388z" fill="#ba4a83" stroke="#ba4a83"/>
   <path d="m97.112 149.44 3.4963 3.9215 0.28473-4.2536z" fill="#c75b93" stroke="#c75b93"/>
  </g>
  <g fill="#ba4a83" stroke="#ba4a83">
   <path d="m97.112 149.44 2.2679 4.7483 1.2284-0.82683z"/>
   <path d="m95.481 151.24 3.8991 2.9422-2.2679-4.7483z"/>
   <path d="m95.481 151.24 2.4054 4.0759 1.4936-1.1336z"/>
  </g>
  <g>
   <path d="m108.57 151.87 1.7954-1.9371-2.6564-0.42726z" fill="#75c074" stroke="#75c074"/>
   <path d="m108.57 151.87 2.9142-1.0949-1.1188-0.84227z" fill="#53af51" stroke="#53af51"/>
   <path d="m106.47 153.17 2.1025-1.2993-0.86103-2.3644z" fill="#75c074" stroke="#75c074"/>
   <path d="m103.43 151.54 3.0348 1.6258 1.2415-3.6637z" fill="#74c073" stroke="#74c073"/>
   <path d="m100.61 153.36 2.764 0.59058 0.0598-2.4053z" fill="#74c073" stroke="#74c073"/>
   <path d="m106.47 153.17 2.3151 1.063-0.21261-2.3623z" fill="#42a741" stroke="#42a741"/>
   <path d="m103.37 153.95 3.0947-0.77957-3.0348-1.6258z" fill="#74c073" stroke="#74c073"/>
   <path d="m108.57 151.87 2.246 3.148 0.66818-4.2429z" fill="#156f13" stroke="#156f13"/>
   <path d="m108.78 154.23 2.0334 0.7857-2.246-3.148z" fill="#259823" stroke="#259823"/>
   <path d="m97.886 155.32 1.5645 0.66176-0.07087-1.7954z" fill="#116610" stroke="#116610"/>
   <path d="m103.37 153.95 2.4805 2.2915 0.61421-3.0711z" fill="#34a032" stroke="#34a032"/>
   <path d="m100.61 153.36 1.3465 3.3309 1.4174-2.7403z" fill="#44a842" stroke="#44a842"/>
   <path d="m99.451 155.98 1.1576-2.6222-1.2284 0.82683z" fill="#249323" stroke="#249323"/>
   <path d="m105.85 156.24 2.9293-2.008-2.3151-1.063z" fill="#259923" stroke="#259923"/>
   <path d="m99.451 155.98 2.5041 0.70871-1.3465-3.3309z" fill="#2c9c2a" stroke="#2c9c2a"/>
   <path d="m108.84 157.12 1.9711-2.1048-2.0334-0.7857z" fill="#003b00" stroke="#003b00"/>
   <path d="m105.85 156.24 2.9916 0.88244-0.0623-2.8904z" fill="#0f620f" stroke="#0f620f"/>
   <path d="m101.95 156.69 3.8979-0.44885-2.4805-2.2915z" fill="#269924" stroke="#269924"/>
   <path d="m101.95 156.69 2.5129 1.7365 1.385-2.1854z" fill="#0c590b" stroke="#0c590b"/>
   <path d="m97.886 155.32-0.16704 5.2452 1.7316-4.5834z" fill="#023802" stroke="#023802"/>
   <path d="m104.47 158.42 4.3765-1.303-2.9916-0.88244z" fill="#034103" stroke="#034103"/>
   <path d="m97.719 160.56 4.2356-3.8747-2.5041-0.70871z" fill="#003900" stroke="#003900"/>
   <path d="m97.719 160.56 6.7486-2.1381-2.5129-1.7365z" fill="#003900" stroke="#003900"/>
   <path d="m119.86 142.07 0.54334-2.4805-1.7009 0.75595z" fill="#62b660" stroke="#62b660"/>
   <path d="m117.3 141.97 2.5648 0.0943-1.1576-1.7245z" fill="#73bd72" stroke="#73bd72"/>
   <path d="m121.41 143.19-1.0012-3.6056-0.54334 2.4805z" fill="#269424" stroke="#269424"/>
   <path d="m118.28 145.23 1.5828-3.1656-2.5648-0.0943z" fill="#61b660" stroke="#61b660"/>
   <path d="m118.28 145.23 3.1273-2.0404-1.5445-1.1251z" fill="#1c821a" stroke="#1c821a"/>
   <path d="m119.64 147.3 1.7707-4.1093-3.1273 2.0404z" fill="#095309" stroke="#095309"/>
   <path d="m117.3 141.97-1.0732 5.6931 2.0552-2.4332z" fill="#58b156" stroke="#58b156"/>
   <path d="m116.22 147.66 3.4119-0.36438-1.3566-2.0688z" fill="#0b560a" stroke="#0b560a"/>
   <path d="m117.3 141.97-4.475 7.9137 3.4018-2.2206z" fill="#57b155" stroke="#57b155"/>
   <path d="m110.82 155.02 2.0713 0.43431-1.4032-4.6772z" fill="#003900" stroke="#003900"/>
   <path d="m112.89 155.45-0.0651-5.5667-1.3381 0.88951z" fill="#003900" stroke="#003900"/>
   <path d="m112.89 155.45 3.3367-7.7873-3.4018 2.2206z" fill="#044404" stroke="#044404"/>
   <path d="m112.89 155.45 6.7486-8.1517-3.4119 0.36438z" fill="#003900" stroke="#003900"/>
   <path d="m108.84 157.12 4.0424-1.6704-2.0713-0.43431z" fill="#013801" stroke="#013801"/>
   <path d="m87.763 149.4-0.16704-2.7729-0.83522 1.4032z" fill="#146a13" stroke="#146a13"/>
   <path d="m87.763 149.4 2.0379-2.1048-2.205-0.66815z" fill="#239421" stroke="#239421"/>
   <path d="m90.169 149.64 1.3363-1.8375-1.7038-0.50116z" fill="#74c073" stroke="#74c073"/>
   <path d="m87.763 149.4 2.4054 0.23387-0.3675-2.3386z" fill="#2f9d2d" stroke="#2f9d2d"/>
   <path d="m91.872 152.21-0.3675-4.4099-1.3363 1.8375z" fill="#75c074" stroke="#75c074"/>
   <path d="m91.872 152.21 3.6081-0.96885-3.9756-3.4411z" fill="#75c074" stroke="#75c074"/>
   <path d="m86.761 148.03-0.13364 4.5436 1.1359-3.1738z" fill="#043704" stroke="#043704"/>
   <path d="m88.665 153.11 1.5034-3.4745-2.4054-0.23387z" fill="#249722" stroke="#249722"/>
   <path d="m86.627 152.58 2.0379 0.53454-0.90203-3.7084z" fill="#003900" stroke="#003900"/>
   <path d="m88.665 153.11 3.2072-0.90204-1.7038-2.5725z" fill="#2a9b28" stroke="#2a9b28"/>
   <path d="m91.872 152.21 2.5391 2.3052 1.0691-3.274z" fill="#75c074" stroke="#75c074"/>
   <path d="m94.411 154.52 3.4745 0.80183-2.4054-4.0759z" fill="#74c073" stroke="#74c073"/>
   <path d="m91.872 152.21 0.80181 5.1784 1.7373-2.8732z" fill="#309f2e" stroke="#309f2e"/>
  </g>
  <path d="m91.505 147.8-3.9088-1.1693 2.205 0.66815z" fill="none" stroke="#e8e7e4"/>
  <g>
   <path d="m88.665 153.11 4.009 4.2763-0.80181-5.1784z" fill="#259923" stroke="#259923"/>
   <path d="m90.369 158.19 2.3052-0.8018-4.009-4.2763z" fill="#003900" stroke="#003900"/>
   <path d="m92.674 157.39 5.2118-2.0713-3.4745-0.80183z" fill="#2f9e2d" stroke="#2f9e2d"/>
   <path d="m86.627 152.58 3.7418 5.6127-1.7038-5.0781z" fill="#003900" stroke="#003900"/>
   <path d="m90.369 158.19 3.0068 1.9043-0.70158-2.7061z" fill="#003900" stroke="#003900"/>
   <path d="m92.674 157.39 5.0447 3.1738 0.16704-5.2452z" fill="#259923" stroke="#259923"/>
   <path d="m93.376 160.1 4.3431 0.46771-5.0447-3.1738z" fill="#003a00" stroke="#003a00"/>
   <path d="m80.096 133.72 0.88533 2.1214 0.31738-2.1047z" fill="#43a842" stroke="#43a842"/>
   <path d="m79.745 135.67 1.2361 0.16704-0.88533-2.1214z" fill="#249722" stroke="#249722"/>
   <path d="m80.096 133.72-1.4366 2.4221 1.0858-0.46773z" fill="#249722" stroke="#249722"/>
   <path d="m80.981 135.84 2.4388 0.93545-2.1215-3.0402z" fill="#72be71" stroke="#72be71"/>
   <path d="m79.545 138.25 0.20045-2.5725-1.0858 0.46773z" fill="#167214" stroke="#167214"/>
   <path d="m79.545 138.25 1.4366-2.4054-1.2361-0.16704z" fill="#259923" stroke="#259923"/>
   <path d="m79.545 138.25 1.6036 0.40091-0.16704-2.8063z" fill="#2d9c2b" stroke="#2d9c2b"/>
   <path d="m81.148 138.65 2.2718-1.8709-2.4388-0.93545z" fill="#74bf73" stroke="#74bf73"/>
   <path d="m78.659 136.14-0.49357 4.3886 1.3789-2.2839z" fill="#167214" stroke="#167214"/>
   <path d="m83.22 141.09 0.20045-4.3097-2.2718 1.8709z" fill="#74c073" stroke="#74c073"/>
   <path d="m83.22 141.09 1.6704-0.13363-1.47-4.1761z" fill="#75c074" stroke="#75c074"/>
   <path d="m79.545 138.25 0.60136 3.2741 1.0023-2.8732z" fill="#259923" stroke="#259923"/>
   <path d="m78.166 140.53 1.9803 0.99021-0.60136-3.2741z" fill="#0f610e" stroke="#0f610e"/>
   <path d="m80.146 141.52 3.0736-0.43432-2.0713-2.4388z" fill="#58b157" stroke="#58b157"/>
   <path d="m81.449 144.13 1.7707-3.0402-3.0736 0.43432z" fill="#259923" stroke="#259923"/>
   <path d="m83.22 141.09 1.8375 3.675-0.16704-3.8086z" fill="#238c22" stroke="#238c22"/>
   <path d="m81.449 144.13 3.6081 0.63478-1.8375-3.675z" fill="#259923" stroke="#259923"/>
   <path d="m81.449 144.13 2.1382 2.372 1.47-1.7372z" fill="#259923" stroke="#259923"/>
   <path d="m80.056 147.62 3.5315-1.119-2.1382-2.372z" fill="#013d01" stroke="#013d01"/>
   <path d="m83.587 146.5 3.1738 1.5368-1.7038-3.274z" fill="#003900" stroke="#003900"/>
   <path d="m78.166 140.53 3.2832 3.5961-1.3029-2.6059z" fill="#044403" stroke="#044403"/>
   <path d="m78.166 140.53 1.8899 7.087 1.3933-3.491z" fill="#044404" stroke="#044404"/>
   <path d="m83.587 146.5 3.0402 6.0804 0.13364-4.5436z" fill="#003900" stroke="#003900"/>
   <path d="m80.056 147.62 6.5717 4.9614-3.0402-6.0804z" fill="#003900" stroke="#003900"/>
   <path d="m80.056 147.62 5.4024 7.0328 1.1693-2.0713z" fill="#003a00" stroke="#003a00"/>
   <path d="m85.458 154.65 4.9111 3.5413-3.7418-5.6127z" fill="#003900" stroke="#003900"/>
   <path d="m81.783 132.42 2.5012 1.9007-2.0001-2.6524z" fill="#f8a9d3" stroke="#f8a9d3"/>
   <path d="m81.299 133.74 2.9856 0.581-2.5012-1.9007z" fill="#e583b6" stroke="#e583b6"/>
   <path d="m84.284 134.32 4.5121 0.63784-6.5122-3.2902z" fill="#fed7ec" stroke="#fed7ec"/>
   <path d="m83.42 136.78 1.4311-0.2858-0.56697-2.1734z" fill="#de79ad" stroke="#de79ad"/>
   <path d="m81.299 133.74 2.1215 3.0402 0.86417-2.4592z" fill="#cd6399" stroke="#cd6399"/>
   <path d="m84.851 136.49 3.9451-1.5355-4.5121-0.63784z" fill="#f498c8" stroke="#f498c8"/>
   <path d="m84.851 136.49 3.5908 2.3387 0.35435-3.8743z" fill="#f293c4" stroke="#f293c4"/>
   <path d="m88.442 138.83 4.5998 1.5218-4.2454-5.3961z" fill="#ffdbee" stroke="#ffdbee"/>
   <path d="m83.42 136.78 1.47 4.1761-0.03884-4.4619z" fill="#bd4e86" stroke="#bd4e86"/>
   <path d="m84.89 140.95 3.5519-2.1232-3.5908-2.3387z" fill="#dc77ab" stroke="#dc77ab"/>
   <path d="m84.89 140.95 3.5283 1.7747 0.02363-3.8979z" fill="#cc6298" stroke="#cc6298"/>
   <path d="m88.418 142.73 4.6234-2.3761-4.5998-1.5218z" fill="#feb5db" stroke="#feb5db"/>
   <path d="m88.418 142.73 3.5435 0.96856 1.0799-3.3446z" fill="#fdb3d9" stroke="#fdb3d9"/>
   <path d="m85.057 144.76 3.3613-2.0339-3.5283-1.7747z" fill="#ba4a83" stroke="#ba4a83"/>
   <path d="m95.033 146.53-1.9912-6.1795-1.0799 3.3446z" fill="#ffbee0" stroke="#ffbee0"/>
   <path d="m85.057 144.76 2.5391 1.8709 0.8222-3.9048z" fill="#ba4a83" stroke="#ba4a83"/>
   <path d="m92.954 146.44 2.0789 0.0945-3.0711-2.8348z" fill="#f8a4d0" stroke="#f8a4d0"/>
   <path d="m88.418 142.73 1.3828 4.5729 2.1608-3.6044z" fill="#ef8dc0" stroke="#ef8dc0"/>
   <path d="m87.596 146.63 2.205 0.66815-1.3828-4.5729z" fill="#c55991" stroke="#c55991"/>
   <path d="m89.801 147.3 3.153-0.86403-0.99219-2.7403z" fill="#eb88bb" stroke="#eb88bb"/>
   <path d="m89.801 147.3 1.7038 0.50116 1.4491-1.3652z" fill="#ca5e95" stroke="#ca5e95"/>
   <path d="m85.057 144.76 1.7038 3.274 0.83522-1.4032z" fill="#b94982" stroke="#b94982"/>
   <path d="m92.954 146.44 2.1734 1.7718-0.09449-1.6773z" fill="#f6a1cd" stroke="#f6a1cd"/>
   <path d="m91.505 147.8 3.6225 0.40657-2.1734-1.7718z" fill="#d76fa5" stroke="#d76fa5"/>
   <path d="m91.505 147.8 3.9756 3.4411-0.35317-3.0345z" fill="#c95d95" stroke="#c95d95"/>
   <path d="m95.481 151.24-0.44766-4.7118 0.09449 1.6773z" fill="#c95d95" stroke="#e8e7e4"/>
   <path d="m93.71 132.54 5.0554-6.9453-6.4965 5.646z" fill="#ffebf6" stroke="#ffebf6"/>
   <path d="m96.923 134.43 1.8426-8.8352-5.0554 6.9453z" fill="#ffe9f5" stroke="#ffe9f5"/>
   <path d="m90.521 133.25 3.1892-0.70869-1.441-1.2993z" fill="#ffcfe8" stroke="#ffcfe8"/>
   <path d="m98.765 125.6 1.8899 8.8824 2.3624-1.5828z" fill="#ffeaf6" stroke="#ffeaf6"/>
   <path d="m96.923 134.43 3.7325 0.0473-1.8899-8.8824z" fill="#ffeaf6" stroke="#ffeaf6"/>
   <path d="m90.521 133.25 3.0474 3.2128 0.14174-3.9215z" fill="#ffbade" stroke="#ffbade"/>
   <path d="m93.568 136.47 3.3545-2.0316-3.2128-1.8899z" fill="#ffbfe1" stroke="#ffbfe1"/>
   <path d="m100.66 134.48 3.9792 1.7592-1.6169-3.342z" fill="#feb9dd" stroke="#feb9dd"/>
   <path d="m88.796 134.95 4.772 1.5119-3.0474-3.2128z" fill="#ed8bbe" stroke="#ed8bbe"/>
   <path d="m100.66 134.48 1.7009 4.2522 2.2784-2.493z" fill="#ffb8dd" stroke="#ffb8dd"/>
   <path d="m102.36 138.73 3.1892 0.59059-0.91082-3.0836z" fill="#f294c5" stroke="#f294c5"/>
   <path d="m93.568 136.47-0.52651 3.8842 1.2352-0.75406z" fill="#d770a4" stroke="#d770a4"/>
   <path d="m94.277 139.6 2.6458-5.1617-3.3545 2.0316z" fill="#feb6dc" stroke="#feb6dc"/>
  </g>
  <g fill="#ffb8dd" stroke="#ffb8dd">
   <path d="m94.277 139.6 3.26 1.0276-0.61421-6.1894z"/>
   <path d="m97.537 140.62 3.1183-6.1421-3.7325-0.0473z"/>
   <path d="m97.537 140.62 4.8192-1.8899-1.7009-4.2522z"/>
  </g>
  <g>
   <path d="m88.796 134.95 4.2454 5.3961 0.52651-3.8842z" fill="#d46ca1" stroke="#d46ca1"/>
   <path d="m97.537 140.62 3.26 1.1812 1.5592-3.0711z" fill="#f08ec1" stroke="#f08ec1"/>
   <path d="m102.36 138.73 2.8463 3.1531 0.34287-2.5625z" fill="#ec89bc" stroke="#ec89bc"/>
   <path d="m100.8 141.81 4.4054 0.082-2.8463-3.1531z" fill="#ef8dc0" stroke="#ef8dc0"/>
   <path d="m92.269 131.25-3.4727 3.7089 1.7245-1.7009z" fill="#ffbade" stroke="#e8e7e4"/>
   <path d="m93.042 140.35 4.4953 0.27357-3.26-1.0276z" fill="#ec88bc" stroke="#ec88bc"/>
   <path d="m97.065 145.73 3.7325-3.9215-3.26-1.1812z" fill="#f08ec1" stroke="#f08ec1"/>
   <path d="m93.042 140.35 4.0228 5.3762 0.47247-5.1027z" fill="#e684b7" stroke="#e684b7"/>
   <path d="m93.042 140.35 1.9912 6.1795 2.0316-0.80321z" fill="#bb4e86" stroke="#bb4e86"/>
   <path d="m95.127 148.21 1.9371-2.4805-2.0316 0.80321z" fill="#bb4b84" stroke="#bb4b84"/>
   <path d="m95.127 148.21 1.9844 1.2284-0.04725-3.7089z" fill="#ba4a83" stroke="#ba4a83"/>
   <path d="m95.481 151.24 1.6312-1.8061-1.9844-1.2284z" fill="#ba4a83" stroke="#ba4a83"/>
   <path d="m97.112 149.44 3.6853-7.6304-3.7325 3.9215z" fill="#c0528a" stroke="#c0528a"/>
   <path d="m97.112 149.44 8.0907-7.5484-4.4054-0.082z" fill="#ba4a83" stroke="#ba4a83"/>
   <path d="m102.64 118.56 3.2644 1.211 2.0273-2.9592z" fill="#f097c6" stroke="#f097c6"/>
   <path d="m108.21 121.73-0.28348-4.9137-2.0273 2.9592z" fill="#feeaf5" stroke="#feeaf5"/>
   <path d="m102.64 118.56 1.7954 4.1577 1.469-2.9467z" fill="#de80b0" stroke="#de80b0"/>
   <path d="m105.9 119.77 1.3364 3.2406 0.9744-1.2861z" fill="#ffe9f5" stroke="#ffe9f5"/>
   <path d="m104.44 122.72 2.8054 0.29391-1.3363-3.2406z" fill="#ef8fc0" stroke="#ef8fc0"/>
   <path d="m107.24 123.01 2.3386 2.372-1.3642-3.6581z" fill="#ffc7e4" stroke="#ffc7e4"/>
   <path d="m109.58 125.38 2.51 0.26338-3.8742-3.9215z" fill="#f4deea" stroke="#f4deea"/>
   <path d="m107.71 126.62 1.8709-1.2361-2.3386-2.372z" fill="#f7a1ce" stroke="#f7a1ce"/>
   <path d="m104.44 122.72 3.2731 3.9021-0.46772-3.6082z" fill="#e17db1" stroke="#e17db1"/>
   <path d="m109.58 125.38 2.4054 2.1716 0.10462-1.9082z" fill="#ffc9e5" stroke="#ffc9e5"/>
   <path d="m107.71 126.62 4.2763 0.93544-2.4054-2.1716z" fill="#f6a0cd" stroke="#f6a0cd"/>
   <path d="m111.98 127.55 4.3096 2.6748-4.205-4.583z" fill="#fecee8" stroke="#fecee8"/>
   <path d="m111.98 127.55 2.6727 3.4745 1.6369-0.79971z" fill="#ffcbe7" stroke="#ffcbe7"/>
   <path d="m111.28 132.5 3.3743-1.47-2.6727-3.4745z" fill="#f08ec1" stroke="#f08ec1"/>
   <path d="m107.71 126.62 3.5747 5.8799 0.70158-4.9445z" fill="#e27fb2" stroke="#e27fb2"/>
   <path d="m115.99 133.96 0.30711-3.7325-1.6369 0.79971z" fill="#ffcae6" stroke="#ffcae6"/>
   <path d="m115.99 133.96 2.6792 1.4104-2.3721-5.1428z" fill="#ffc6e4" stroke="#ffc6e4"/>
   <path d="m111.28 132.5 4.7041 1.4628-1.3298-2.9328z" fill="#f08ec1" stroke="#f08ec1"/>
   <path d="m111.28 132.5 3.0068 3.7084 1.6973-2.2456z" fill="#f08ec1" stroke="#f08ec1"/>
   <path d="m111.35 137.81 2.94-1.6036-3.0068-3.7084z" fill="#c1548c" stroke="#c1548c"/>
   <path d="m114.29 136.21 4.3765-0.83524-2.6792-1.4104z" fill="#f6a0cd" stroke="#f6a0cd"/>
   <path d="m114.29 136.21 3.0569 4.0926 1.3196-4.9278z" fill="#c4578f" stroke="#c4578f"/>
   <path d="m117.35 140.3 1.3571 0.0402-0.0375-4.968z" fill="#c4578f" stroke="#c4578f"/>
   <path d="m117.3 141.97 1.4072-1.6302-1.3571-0.0402z" fill="#a94679" stroke="#a94679"/>
   <path d="m94.211 117.3 1.2361-1.4366-1.2361-0.26726z" fill="#ffebf6" stroke="#ffebf6"/>
   <path d="m94.211 117.3 1.1359 0.8352 0.10023-2.2718z" fill="#fec1e1" stroke="#fec1e1"/>
   <path d="m95.347 118.13 1.9711-1.7372-1.8709-0.53454z" fill="#e586b7" stroke="#e586b7"/>
   <path d="m93.214 119.46 2.133-1.3237-1.1359-0.8352z" fill="#fec9e5" stroke="#fec9e5"/>
   <path d="m93.214 119.46 2.5339 0.614-0.40091-1.9377z" fill="#f298c7" stroke="#f298c7"/>
   <path d="m95.748 120.07 1.5702-3.675-1.9711 1.7372z" fill="#c2558c" stroke="#c2558c"/>
   <path d="m93.242 121.17 2.5056-1.1025-2.5339-0.614z" fill="#ea8abc" stroke="#ea8abc"/>
   <path d="m91.159 121.47 2.0835-0.2915-0.02829-1.7165z" fill="#fec4e3" stroke="#fec4e3"/>
   <path d="m93.877 122.61 1.8709-2.5391-2.5056 1.1025z" fill="#c76195" stroke="#c76195"/>
   <path d="m91.159 121.47 2.7183 1.1451-0.63476-1.4366z" fill="#f49bc9" stroke="#f49bc9"/>
   <path d="m88.111 124.35 2.3915-0.1 0.65598-2.7821z" fill="#fccbe5" stroke="#fccbe5"/>
   <path d="m90.503 124.25 3.3743-1.637-2.7183-1.1451z" fill="#f49bca" stroke="#f49bca"/>
   <path d="m91.137 126.29 2.7395-3.675-3.3743 1.637z" fill="#cb6097" stroke="#cb6097"/>
   <path d="m88.732 126.89 1.7707-2.6393-2.3915 0.1z" fill="#fdc9e4" stroke="#fdc9e4"/>
   <path d="m88.732 126.89 2.4054-0.60135-0.63477-2.038z" fill="#d66fa4" stroke="#d66fa4"/>
   <path d="m85.631 127.09 3.1013-0.20101-0.6208-2.5393z" fill="#fed4ea" stroke="#fed4ea"/>
   <path d="m86.694 129.66 2.0379-2.7729-3.1013 0.20101z" fill="#f8afd5" stroke="#f8afd5"/>
   <path d="m86.694 129.66 2.1716 0.43431-0.13363-3.2072z" fill="#c65a92" stroke="#c65a92"/>
   <path d="m88.866 130.09 2.2718-3.8086-2.4054 0.60135z" fill="#bf5189" stroke="#bf5189"/>
   <path d="m83.286 130.13 3.4077-0.46771-1.0633-2.5719z" fill="#fed7ec" stroke="#fed7ec"/>
   <path d="m83.286 130.13 1.8375 2.5056 1.5702-2.9734z" fill="#f193c4" stroke="#f193c4"/>
   <path d="m82.284 131.66 2.8397 0.96884-1.8375-2.5056z" fill="#dc79ac" stroke="#dc79ac"/>
   <path d="m85.124 132.63 3.7418-2.539-2.1716-0.43431z" fill="#d36ba0" stroke="#d36ba0"/>
   <path d="m85.124 132.63 3.6724 2.3214 0.06935-4.8604z" fill="#ba4a83" stroke="#ba4a83"/>
   <path d="m97.318 116.4 5.3216 2.1633-3.0832-4.1344z" fill="#ffebf6" stroke="#ffebf6"/>
   <path d="m98.86 121.39 3.7798-2.8348-5.3216-2.1633z" fill="#ffc5e3" stroke="#ffc5e3"/>
   <path d="m95.748 120.07 3.1121 1.3231-1.5419-4.9981z" fill="#ffcae6" stroke="#ffcae6"/>
   <path d="m98.86 121.39 5.5751 1.3229-1.7954-4.1577z" fill="#ffc2e2" stroke="#ffc2e2"/>
   <path d="m93.877 122.61 4.983-1.2159-3.1121-1.3231z" fill="#ffbee0" stroke="#ffbee0"/>
   <path d="m98.86 121.39 3.4963 4.016 2.0789-2.6931z" fill="#feb6db" stroke="#feb6db"/>
   <path d="m94.466 124.89 4.394-3.4963-4.983 1.2159z" fill="#ffb8dd" stroke="#ffb8dd"/>
   <path d="m98.765 125.6 3.5908-0.18898-3.4963-4.016z" fill="#f293c5" stroke="#f293c5"/>
   <path d="m94.466 124.89 4.2995 0.70871 0.0945-4.205z" fill="#f295c5" stroke="#f295c5"/>
   <path d="m91.137 126.29 3.3285-1.3946-0.58899-2.2803z" fill="#fec7e4" stroke="#fec7e4"/>
   <path d="m102.36 125.41 5.352 1.209-3.2731-3.9021z" fill="#ffc4e2" stroke="#ffc4e2"/>
   <path d="m102.36 125.41 3.5435 3.071 1.8084-1.8621z" fill="#ffb8dd" stroke="#ffb8dd"/>
   <path d="m88.866 130.09 3.4033 1.1515-1.1315-4.9601z" fill="#f9a8d2" stroke="#f9a8d2"/>
   <path d="m92.269 131.25 2.197-6.3547-3.3285 1.3946z" fill="#f396c6" stroke="#f396c6"/>
   <path d="m102.36 125.41 0.66146 7.4886 2.8821-4.4176z" fill="#f08fc2" stroke="#f08fc2"/>
   <path d="m88.866 130.09 1.6552 3.1595 1.7481-2.008z" fill="#e17eb1" stroke="#e17eb1"/>
   <path d="m105.9 128.48 5.3832 4.0179-3.5747-5.8799z" fill="#ffc3e2" stroke="#ffc3e2"/>
   <path d="m92.269 131.25 6.4965-5.646-4.2995-0.70871z" fill="#e685b7" stroke="#e685b7"/>
   <path d="m98.765 125.6 4.2522 7.2997-0.66146-7.4886z" fill="#eb88bb" stroke="#eb88bb"/>
   <path d="m108.36 133.77 2.9263-1.2738-5.3832-4.0179z" fill="#feb6dc" stroke="#feb6dc"/>
   <path d="m103.02 132.9 5.3389 0.87408-2.4568-5.2917z" fill="#f08ec1" stroke="#f08ec1"/>
   <path d="m88.866 130.09-0.06935 4.8604 1.7245-1.7009z" fill="#e582b5" stroke="#e582b5"/>
   <path d="m109.21 135.57 2.0759-3.0692-2.9263 1.2738z" fill="#ffb8dd" stroke="#ffb8dd"/>
   <path d="m104.63 136.24 3.722-2.468-5.3389-0.87408z" fill="#ea88bb" stroke="#ea88bb"/>
   <path d="m111.35 137.81-0.0668-5.312-2.0759 3.0692z" fill="#ffb8dd" stroke="#ffb8dd"/>
   <path d="m104.63 136.24 4.5725-0.67258-0.85045-1.7954z" fill="#f08ec1" stroke="#f08ec1"/>
   <path d="m105.55 139.32 3.6616-3.7562-4.5725 0.67258z" fill="#d2699f" stroke="#d2699f"/>
   <path d="m105.55 139.32 5.8043-1.5134-2.1427-2.2428z" fill="#d26a9f" stroke="#d26a9f"/>
   <path d="m105.2 141.89 6.1472-4.0758-5.8043 1.5134z" fill="#d56ea3" stroke="#d56ea3"/>
   <path d="m85.124 132.63 3.6724 2.3214-6.5122-3.2902z" fill="#fed7ec" stroke="#fed7ec"/>
  </g>
 </g>
</svg>
