<svg width="43.239994mm" height="46.13739mm" version="1.1" viewBox="0 0 43.239994 46.13739" xmlns="http://www.w3.org/2000/svg">
 <g transform="translate(-78.165723,-114.42535)">
  <g transform="translate(39.186928,-41.990877)">
   <g>
    <path d="m73.681731 182.70944 1.421005-4.51074-2.939971 1.60361z" fill="#ffcbe6"/>
    <path d="m73.681731 182.70944 4.477905-0.41818-3.0569-4.09256z" fill="#f090c2"/>
    <path d="m72.162765 179.80231-1.126862 5.15136 2.645828-2.24423z" fill="#ffc5e4"/>
    <path d="m74.839286 185.07179 3.32035-2.78053-4.477905 0.41818z" fill="#f08ec1"/>
    <path d="m74.839286 185.07179 3.270225-1.1101 0.05013-1.67043z" fill="#c0528a"/>
    <path d="m66.015571 183.87816 5.020332 1.07551 1.126862-5.15136z" fill="#ffdaee"/>
    <path d="m71.035903 184.95367 3.803383 0.11812-1.157555-2.36235z" fill="#f59dcb"/>
    <path d="m65.862349 186.67819 5.173554-1.72452-5.020332-1.07551z" fill="#ffbfe0"/>
    <path d="m62.607886 188.62219 3.254463-1.944 0.153222-2.80003z" fill="#ffc0e1"/>
    <path d="m71.248511 189.67838 3.590775-4.60659-3.803383-0.11812z" fill="#f08ec1"/>
    <path d="m62.607886 188.62219 2.75837 1.38692 0.496093-3.33092z" fill="#f396c6"/>
    <path d="m65.862349 186.67819 5.386162 3.00019-0.212608-4.72471z" fill="#f8a6d1"/>
    <path d="m65.862349 186.67819 2.658875 4.81716 2.727287-1.81697z" fill="#ef8dc0"/>
    <path d="m65.366256 190.00911 3.154968 1.48624-2.658875-4.81716z" fill="#f08ec1"/>
    <path d="m57.924849 191.42651 3.780999-0.33207 0.902038-2.47225z" fill="#f192c3"/>
    <path d="m73.634482 191.87537 1.204804-6.80358-3.590775 4.60659z" fill="#be4f88"/>
    <path d="m66.015571 183.87816-8.090722 7.54835 4.683037-2.80432z" fill="#ffc5e3"/>
    <path d="m61.705848 191.09444 3.660408-1.08533-2.75837-1.38692z" fill="#f08ec1"/>
    <path d="m68.521224 191.49535 2.656418 0.42726 0.07087-2.24423z" fill="#c3558d"/>
    <path d="m71.177642 191.92261 2.45684-0.0472-2.385971-2.19699z" fill="#ba4a83"/>
    <path d="m72.296409 192.76488 1.338073-0.88951-2.45684 0.0472z" fill="#94436c"/>
    <path d="m61.705848 191.09444 2.539062 2.43884 1.121346-3.52417z" fill="#bb4b84"/>
    <path d="m73.634482 191.87537 4.475029-7.91368-3.270225 1.1101z" fill="#bf5189"/>
    <path d="m64.24491 193.53328 4.276314-2.03793-3.154968-1.48624z" fill="#be4f87"/>
    <path d="m61.421126 195.34802 2.823784-1.81474-2.539062-2.43884z" fill="#ba4a83"/>
    <path d="m57.924849 191.42651 3.496277 3.92151 0.284722-4.25358z" fill="#c75b93"/>
   </g>
   <g fill="#ba4a83">
    <path d="m57.924849 191.42651 2.267857 4.74834 1.22842-0.82683z"/>
    <path d="m56.293643 193.2326 3.899063 2.94225-2.267857-4.74834z"/>
    <path d="m56.293643 193.2326 2.405422 4.07587 1.493641-1.13362z"/>
   </g>
   <g>
    <path d="m69.382256 193.85974 1.795387-1.93713-2.656418-0.42726z" fill="#75c074"/>
    <path d="m69.382256 193.85974 2.914154-1.09486-1.118767-0.84227z" fill="#53af51"/>
    <path d="m67.279762 195.15903 2.102494-1.29929-0.861031-2.36439z" fill="#75c074"/>
    <path d="m64.244911 193.53328 3.034851 1.62575 1.241463-3.66368z" fill="#74c073"/>
    <path d="m61.421127 195.34802 2.763954 0.59058 0.05983-2.40532z" fill="#74c073"/>
    <path d="m67.279762 195.15903 2.315102 1.06305-0.212608-2.36234z" fill="#42a741"/>
    <path d="m64.185081 195.9386 3.094681-0.77957-3.034851-1.62575z" fill="#74c073"/>
    <path d="m69.382256 193.85974 2.245979 3.14804 0.668175-4.2429z" fill="#156f13"/>
    <path d="m69.594864 196.22208 2.033371 0.7857-2.245979-3.14804z" fill="#259823"/>
    <path d="m58.699066 197.30847 1.564511 0.66176-0.07087-1.79538z" fill="#116610"/>
    <path d="m64.185081 195.9386 2.480469 2.29149 0.614212-3.07106z" fill="#34a032"/>
    <path d="m61.421127 195.34802 1.346543 3.33092 1.417411-2.74034z" fill="#44a842"/>
    <path d="m60.263577 197.97023 1.15755-2.62221-1.22842 0.82683z" fill="#249323"/>
    <path d="m66.66555 198.23009 2.929314-2.00801-2.315102-1.06305z" fill="#259923"/>
    <path d="m60.263577 197.97023 2.504093 0.70871-1.346543-3.33092z" fill="#2c9c2a"/>
    <path d="m69.65712 199.11253 1.971115-2.10475-2.033371-0.7857z" fill="#003b00"/>
    <path d="m66.66555 198.23009 2.99157 0.88244-0.06226-2.89045z" fill="#0f620f"/>
    <path d="m62.76767 198.67894 3.89788-0.44885-2.480469-2.29149z" fill="#269924"/>
    <path d="m62.76767 198.67894 2.512916 1.73654 1.384964-2.18539z" fill="#0c590b"/>
    <path d="m58.699066 197.30847-0.167042 5.24515 1.731553-4.58339z" fill="#023802"/>
    <path d="m65.280586 200.41548 4.376534-1.30295-2.99157-0.88244z" fill="#034103"/>
    <path d="m58.532024 202.55362 4.235646-3.87468-2.504093-0.70871z" fill="#003900"/>
    <path d="m58.532024 202.55362 6.748562-2.13814-2.512916-1.73654z" fill="#003900"/>
   </g>
   <path d="m58.532024 202.55362 11.125096-3.44109-4.376534 1.30295z" fill="none"/>
   <g>
    <path d="m80.674294 184.05598 0.543342-2.48046-1.700897 0.75595z" fill="#62b660"/>
    <path d="m78.109512 183.96169 2.564782 0.0943-1.157555-1.72451z" fill="#73bd72"/>
    <path d="m82.218788 185.18111-1.001152-3.60559-0.543342 2.48046z" fill="#269424"/>
    <path d="m79.091515 187.22153 1.582779-3.16555-2.564782-0.0943z" fill="#61b660"/>
    <path d="m79.091515 187.22153 3.127273-2.04042-1.544494-1.12513z" fill="#1c821a"/>
    <path d="m80.448128 189.29037 1.77066-4.10926-3.127273 2.04042z" fill="#095309"/>
    <path d="m78.109512 183.96169-1.073242 5.69306 2.055245-2.43322z" fill="#58b156"/>
    <path d="m77.03627 189.65475 3.411858-0.36438-1.356613-2.06884z" fill="#0b560a"/>
    <path d="m78.109512 183.96169-4.475029 7.91368 3.401787-2.22062z" fill="#57b155"/>
    <path d="m71.628235 197.00778 2.071335 0.43431-1.40316-4.67721z" fill="#003900"/>
    <path d="m73.69957 197.44209-0.06509-5.56672-1.338073 0.88951z" fill="#003900"/>
    <path d="m73.69957 197.44209 3.3367-7.78734-3.401787 2.22062z" fill="#044404"/>
    <path d="m73.69957 197.44209 6.748558-8.15172-3.411858 0.36438z" fill="#003900"/>
    <path d="m69.65712 199.11253 4.04245-1.67044-2.071335-0.43431z" fill="#013801"/>
    <path d="m48.576237 191.39511-0.167042-2.7729-0.835217 1.40315z" fill="#146a13"/>
    <path d="m48.576237 191.39511 2.037929-2.10475-2.204971-0.66815z" fill="#239421"/>
    <path d="m50.981663 191.62898 1.336349-1.83746-1.703846-0.50116z" fill="#74c073"/>
    <path d="m48.576237 191.39511 2.405426 0.23387-0.367497-2.33862z" fill="#2f9d2d"/>
    <path d="m52.685509 194.20145-0.367497-4.40993-1.336349 1.83746z" fill="#75c074"/>
    <path d="m52.685509 194.20145 3.608135-0.96885-3.975632-3.44108z" fill="#75c074"/>
    <path d="m47.573978 190.02536-0.133636 4.54359 1.135895-3.17384z" fill="#043704"/>
    <path d="m49.478271 195.10349 1.503392-3.47451-2.405426-0.23387z" fill="#249722"/>
    <path d="m47.440342 194.56895 2.037929 0.53454-0.902034-3.70838z" fill="#003900"/>
    <path d="m49.478271 195.10349 3.207238-0.90204-1.703846-2.57247z" fill="#2a9b28"/>
    <path d="m52.685509 194.20145 2.539058 2.30519 1.069077-3.27404z" fill="#75c074"/>
    <path d="m55.224567 196.50664 3.474499 0.80183-2.405422-4.07587z" fill="#74c073"/>
    <path d="m52.685509 194.20145 0.801807 5.17836 1.737251-2.87317z" fill="#309f2e"/>
   </g>
   <path d="m52.318012 189.79152-3.908817-1.16931 2.204971 0.66815z" fill="none"/>
   <g>
    <path d="m49.478271 195.10349 4.009045 4.27632-0.801807-5.17836z" fill="#259923"/>
    <path d="m51.182114 200.18161 2.305202-0.8018-4.009045-4.27632z" fill="#003900"/>
    <path d="m53.487316 199.37981 5.21175-2.07134-3.474499-0.80183z" fill="#2f9e2d"/>
    <path d="m47.440342 194.56895 3.741772 5.61266-1.703843-5.07812z" fill="#003900"/>
    <path d="m51.182114 200.18161 3.006782 1.9043-0.70158-2.7061z" fill="#003900"/>
    <path d="m53.487316 199.37981 5.044708 3.17381 0.167042-5.24515z" fill="#259923"/>
    <path d="m54.188896 202.08591 4.343128 0.46771-5.044708-3.17381z" fill="#003a00"/>
    <path d="m40.90894 175.70975 0.885331 2.12143 0.317382-2.10472z" fill="#43a842"/>
    <path d="m40.558152 177.66414 1.236119 0.16704-0.885331-2.12143z" fill="#249722"/>
    <path d="m40.90894 175.70975-1.436573 2.42212 1.085785-0.46773z" fill="#249722"/>
    <path d="m41.794271 177.83118 2.438839 0.93545-2.121457-3.04017z" fill="#72be71"/>
    <path d="m40.357698 180.2366 0.200454-2.57246-1.085785 0.46773z" fill="#167214"/>
    <path d="m40.357698 180.2366 1.436573-2.40542-1.236119-0.16704z" fill="#259923"/>
    <path d="m40.357698 180.2366 1.603618 0.40091-0.167045-2.80633z" fill="#2d9c2b"/>
    <path d="m41.961316 180.63751 2.271794-1.87088-2.438839-0.93545z" fill="#74bf73"/>
    <path d="m39.472367 178.13187-0.493572 4.38859 1.378903-2.28386z" fill="#167214"/>
    <path d="m44.032659 183.07635 0.200451-4.30972-2.271794 1.87088z" fill="#74c073"/>
    <path d="m44.032659 183.07635 1.670429-0.13363-1.469978-4.17609z" fill="#75c074"/>
    <path d="m40.357698 180.2366 0.601356 3.27407 1.002262-2.87316z" fill="#259923"/>
    <path d="m38.978795 182.52046 1.980259 0.99021-0.601356-3.27407z" fill="#0f610e"/>
    <path d="m40.959054 183.51067 3.073605-0.43432-2.071343-2.43884z" fill="#58b157"/>
    <path d="m42.261994 186.11655 1.770665-3.0402-3.073605 0.43432z" fill="#259923"/>
    <path d="m44.032659 183.07635 1.837474 3.67498-0.167045-3.80861z" fill="#238c22"/>
    <path d="m42.261994 186.11655 3.608139 0.63478-1.837474-3.67498z" fill="#259923"/>
    <path d="m42.261994 186.11655 2.138157 2.37201 1.469982-1.73723z" fill="#259923"/>
    <path d="m40.868676 189.60751 3.531475-1.11895-2.138157-2.37201z" fill="#013d01"/>
    <path d="m44.400151 188.48856 3.173828 1.5368-1.703846-3.27403z" fill="#003900"/>
    <path d="m38.978795 182.52046 3.283199 3.59609-1.30294-2.60588z" fill="#044403"/>
    <path d="m38.978795 182.52046 1.889881 7.08705 1.393318-3.49096z" fill="#044404"/>
    <path d="m44.400151 188.48856 3.040192 6.08039 0.133636-4.54359z" fill="#003900"/>
    <path d="m40.868676 189.60751 6.571667 4.96144-3.040192-6.08039z" fill="#003900"/>
    <path d="m40.868676 189.60751 5.402363 7.03278 1.169304-2.07134z" fill="#003a00"/>
    <path d="m46.271039 196.64029 4.911076 3.54132-3.741772-5.61266z" fill="#003900"/>
    <path d="m42.596082 174.4068 2.501201 1.90066-2.000072-2.65235z" fill="#f8a9d3"/>
    <path d="m42.111653 175.72646 2.98563 0.581-2.501201-1.90066z" fill="#e583b6"/>
    <path d="m45.097283 176.30746 4.512093 0.63784-6.512165-3.29019z" fill="#fed7ec"/>
    <path d="m44.23311 178.76663 1.43114-0.2858-0.566967-2.17337z" fill="#de79ad"/>
    <path d="m42.111653 175.72646 2.121457 3.04017 0.864173-2.45917z" fill="#cd6399"/>
    <path d="m45.66425 178.48083 3.945126-1.53553-4.512093-0.63784z" fill="#f498c8"/>
    <path d="m45.66425 178.48083 3.590775 2.33873 0.354351-3.87426z" fill="#f293c4"/>
    <path d="m49.255025 180.81956 4.599789 1.52181-4.245438-5.39607z" fill="#ffdbee"/>
    <path d="m44.23311 178.76663 1.469978 4.17609-0.03884-4.46189z" fill="#bd4e86"/>
    <path d="m45.703088 182.94272 3.551937-2.12316-3.590775-2.33873z" fill="#dc77ab"/>
    <path d="m45.703088 182.94272 3.528309 1.77472 0.02363-3.89788z" fill="#cc6298"/>
    <path d="m49.231397 184.71744 4.623417-2.37607-4.599789-1.52181z" fill="#feb5db"/>
    <path d="m49.231397 184.71744 3.543533 0.96856 1.079884-3.34463z" fill="#fdb3d9"/>
    <path d="m45.870133 186.75133 3.361264-2.03389-3.528309-1.77472z" fill="#ba4a83"/>
    <path d="m55.845983 188.52083-1.991169-6.17946-1.079884 3.34463z" fill="#ffbee0"/>
    <path d="m45.870133 186.75133 2.539063 1.87088 0.822201-3.90477z" fill="#ba4a83"/>
    <path d="m53.767118 188.42633 2.078865 0.0945-3.071053-2.83483z" fill="#f8a4d0"/>
    <path d="m49.231397 184.71744 1.38277 4.57292 2.160763-3.60436z" fill="#ef8dc0"/>
    <path d="m48.409196 188.62221 2.204971 0.66815-1.38277-4.57292z" fill="#c55991"/>
    <path d="m50.614167 189.29036 3.152951-0.86403-0.992188-2.74033z" fill="#eb88bb"/>
    <path d="m50.614167 189.29036 1.703846 0.50116 1.449105-1.36519z" fill="#ca5e95"/>
    <path d="m45.870133 186.75133 1.703846 3.27403 0.835217-1.40315z" fill="#b94982"/>
    <path d="m53.767118 188.42633 2.173358 1.77176-0.09449-1.67726z" fill="#f6a1cd"/>
    <path d="m52.318013 189.79152 3.622463 0.40657-2.173358-1.77176z" fill="#d76fa5"/>
    <path d="m52.318013 189.79152 3.975632 3.44108-0.353169-3.03451z" fill="#c95d95"/>
    <path d="m56.293645 193.2326-0.447662-4.71177 0.09449 1.67726z" fill="#c95d95"/>
    <path d="m54.523063 174.53571 5.055431-6.94532-6.496464 5.64601z" fill="#ffebf6"/>
    <path d="m57.735866 176.42558 1.842628-8.83519-5.055431 6.94532z" fill="#ffe9f5"/>
    <path d="m51.333888 175.2444 3.189175-0.70869-1.441033-1.29931z" fill="#ffcfe8"/>
    <path d="m59.578494 167.59039 1.889881 8.88245 2.362351-1.58279z" fill="#ffeaf6"/>
    <path d="m57.735866 176.42558 3.732509 0.0473-1.889881-8.88245z" fill="#ffeaf6"/>
    <path d="m51.333888 175.2444 3.047436 3.21281 0.141739-3.9215z" fill="#ffbade"/>
    <path d="m54.381324 178.45721 3.354542-2.03163-3.212803-1.88987z" fill="#ffbfe1"/>
    <path d="m61.468375 176.47284 3.979248 1.75925-1.616897-3.34204z" fill="#feb9dd"/>
    <path d="m49.609374 176.9453 4.77195 1.51191-3.047436-3.21281z" fill="#ed8bbe"/>
    <path d="m61.468375 176.47284 1.700894 4.25223 2.278354-2.49298z" fill="#ffb8dd"/>
    <path d="m63.169269 180.72507 3.189174 0.59059-0.91082-3.08357z" fill="#f294c5"/>
    <path d="m54.381324 178.45721-0.526512 3.88416 1.235218-0.75406z" fill="#d770a4"/>
    <path d="m55.09003 181.58731 2.645836-5.16173-3.354542 2.03163z" fill="#feb6dc"/>
   </g>
   <g fill="#ffb8dd">
    <path d="m55.09003 181.58731 3.260044 1.02763-0.614208-6.18936z"/>
    <path d="m58.350074 182.61494 3.118301-6.1421-3.732509-0.0473z"/>
    <path d="m58.350074 182.61494 4.819195-1.88987-1.700894-4.25223z"/>
   </g>
   <g>
    <path d="m49.609374 176.9453 4.245438 5.39607 0.526512-3.88416z" fill="#d46ca1"/>
    <path d="m58.350074 182.61494 3.260044 1.18119 1.559151-3.07106z" fill="#f08ec1"/>
    <path d="m63.169269 180.72507 2.846302 3.15309 0.342872-2.5625z" fill="#ec89bc"/>
    <path d="m61.610118 183.79613 4.405453 0.082-2.846302-3.15309z" fill="#ef8dc0"/>
    <path d="m53.08203 173.2364-3.472656 3.7089 1.724514-1.7009z" fill="#ffbade"/>
    <path d="m53.854812 182.34137 4.495262 0.27357-3.260044-1.02763z" fill="#ec88bc"/>
    <path d="m57.877601 187.71762 3.732517-3.92149-3.260044-1.18119z" fill="#f08ec1"/>
    <path d="m53.854812 182.34137 4.022789 5.37625 0.472473-5.10268z" fill="#e684b7"/>
    <path d="m53.854812 182.34137 1.991169 6.17946 2.03162-0.80321z" fill="#bb4e86"/>
    <path d="m55.940474 190.19809 1.937127-2.48047-2.03162 0.80321z" fill="#bb4b84"/>
    <path d="m55.940474 190.19809 1.984375 1.22842-0.04725-3.70889z" fill="#ba4a83"/>
    <path d="m56.293643 193.2326 1.631206-1.80609-1.984375-1.22842z" fill="#ba4a83"/>
    <path d="m57.924849 191.42651 3.685269-7.63038-3.732517 3.92149z" fill="#c0528a"/>
    <path d="m57.924849 191.42651 8.090722-7.54835-4.405453-0.082z" fill="#ba4a83"/>
    <path d="m63.452751 160.5506 3.264404 1.211 2.027268-2.95916z" fill="#f097c6"/>
    <path d="m69.027901 163.71614-0.283478-4.9137-2.027268 2.95916z" fill="#feeaf5"/>
    <path d="m63.452751 160.5506 1.795387 4.15773 1.469017-2.94673z" fill="#de80b0"/>
    <path d="m66.717155 161.7616 1.336342 3.24064 0.974404-1.2861z" fill="#ffe9f5"/>
    <path d="m65.248138 164.70833 2.805359 0.29391-1.336342-3.24064z" fill="#ef8fc0"/>
    <path d="m68.053497 165.00224 2.338616 2.37203-1.364212-3.65813z" fill="#ffc7e4"/>
    <path d="m70.392113 167.37427 2.51004 0.26338-3.874252-3.92151z" fill="#f4deea"/>
    <path d="m68.521225 168.6104 1.870888-1.23613-2.338616-2.37203z" fill="#f7a1ce"/>
    <path d="m65.248138 164.70833 3.273087 3.90207-0.467728-3.60816z" fill="#e17db1"/>
    <path d="m70.392113 167.37427 2.405418 2.17157 0.104622-1.90819z" fill="#ffc9e5"/>
    <path d="m68.521225 168.6104 4.276306 0.93544-2.405418-2.17157z" fill="#f6a0cd"/>
    <path d="m72.797531 169.54584 4.309609 2.67477-4.204987-4.58296z" fill="#fecee8"/>
    <path d="m72.797531 169.54584 2.672699 3.47448 1.63691-0.79971z" fill="#ffcbe7"/>
    <path d="m72.095955 174.49033 3.374275-1.47001-2.672699-3.47448z" fill="#f08ec1"/>
    <path d="m68.521225 168.6104 3.57473 5.87993 0.701576-4.94449z" fill="#e27fb2"/>
    <path d="m76.800034 175.95311 0.307106-3.7325-1.63691 0.79971z" fill="#ffcae6"/>
    <path d="m76.800034 175.95311 2.679237 1.41035-2.372131-5.14285z" fill="#ffc6e4"/>
    <path d="m72.095955 174.49033 4.704079 1.46278-1.329804-2.93279z" fill="#f08ec1"/>
    <path d="m72.095955 174.49033 3.006782 3.70837 1.697297-2.24559z" fill="#f08ec1"/>
    <path d="m72.162766 179.80231 2.939971-1.60361-3.006782-3.70837z" fill="#c1548c"/>
    <path d="m75.102737 178.1987 4.376534-0.83524-2.679237-1.41035z" fill="#f6a0cd"/>
    <path d="m75.102737 178.1987 3.0569 4.09256 1.319634-4.9278z" fill="#c4578f"/>
    <path d="m78.159637 182.29126 1.357102 0.0402-0.03747-4.96801z" fill="#c4578f"/>
    <path d="m78.109512 183.96169 1.407227-1.63022-1.357102-0.0402z" fill="#a94679"/>
    <path d="m55.024113 159.28937 1.236122-1.43657-1.236122-0.26726z" fill="#e2bacf"/>
    <path d="m55.024113 159.28937 1.135894 0.8352 0.100228-2.27177z" fill="#fec1e1"/>
    <path d="m56.160007 160.12457 1.971116-1.73723-1.870888-0.53454z" fill="#e586b7"/>
    <path d="m54.02697 161.44829 2.133037-1.32372-1.135894-0.8352z" fill="#fec9e5"/>
    <path d="m54.02697 161.44829 2.533943 0.614-0.400906-1.93772z" fill="#f298c7"/>
    <path d="m56.560913 162.06229 1.57021-3.67495-1.971116 1.73723z" fill="#c2558c"/>
    <path d="m54.055264 163.16478 2.505649-1.10249-2.533943-0.614z" fill="#ea8abc"/>
    <path d="m51.971725 163.45628 2.083539-0.2915-0.02829-1.71649z" fill="#fec4e3"/>
    <path d="m54.690029 164.60135 1.870884-2.53906-2.505649 1.10249z" fill="#c76195"/>
    <path d="m51.971725 163.45628 2.718304 1.14507-0.634765-1.43657z" fill="#f49bc9"/>
    <path d="m48.924294 166.33835 2.391456-0.1 0.655975-2.78208z" fill="#fccbe5"/>
    <path d="m51.31575 166.23836 3.374279-1.63701-2.718304-1.14507z" fill="#f49bca"/>
    <path d="m51.950516 168.27631 2.739513-3.67496-3.374279 1.63701z" fill="#cb6097"/>
    <path d="m49.54509 168.87766 1.77066-2.6393-2.391456 0.1z" fill="#fdc9e4"/>
    <path d="m49.54509 168.87766 2.405426-0.60135-0.634766-2.03795z" fill="#d66fa4"/>
    <path d="m46.443825 169.07867 3.101265-0.20101-0.620796-2.53931z" fill="#fed4ea"/>
    <path d="m47.507156 171.65059 2.037934-2.77293-3.101265 0.20101z" fill="#f8afd5"/>
    <path d="m47.507156 171.65059 2.171566 0.43431-0.133632-3.20724z" fill="#c65a92"/>
    <path d="m49.678722 172.0849 2.271794-3.80859-2.405426 0.60135z" fill="#bf5189"/>
    <path d="m44.099472 172.1183 3.407684-0.46771-1.063331-2.57192z" fill="#fed7ec"/>
    <path d="m44.099472 172.1183 1.837475 2.50565 1.570209-2.97336z" fill="#f193c4"/>
    <path d="m43.09721 173.65511 2.839737 0.96884-1.837475-2.50565z" fill="#dc79ac"/>
    <path d="m45.936947 174.62395 3.741775-2.53905-2.171566-0.43431z" fill="#d36ba0"/>
    <path d="m45.936947 174.62395 3.672428 2.32135 0.06935-4.8604z" fill="#ba4a83"/>
    <path d="m58.131126 158.38734 5.321628 2.16326-3.083248-4.13437z" fill="#ffebf6"/>
    <path d="m59.672996 163.38541 3.779758-2.83481-5.321628-2.16326z" fill="#ffc5e3"/>
    <path d="m56.560916 162.06229 3.11208 1.32312-1.54187-4.99807z" fill="#ffcae6"/>
    <path d="m59.672996 163.38541 5.575145 1.32292-1.795387-4.15773z" fill="#ffc2e2"/>
    <path d="m54.690032 164.60135 4.982964-1.21594-3.11208-1.32312z" fill="#ffbee0"/>
    <path d="m59.672996 163.38541 3.496277 4.016 2.078868-2.69308z" fill="#feb6db"/>
    <path d="m55.279021 166.88168 4.393975-3.49627-4.982964 1.21594z" fill="#ffb8dd"/>
    <path d="m59.578498 167.59039 3.590775-0.18898-3.496277-4.016z" fill="#f293c5"/>
    <path d="m55.279021 166.88168 4.299477 0.70871 0.0945-4.20498z" fill="#f295c5"/>
    <path d="m51.950519 168.27631 3.328502-1.39463-0.588989-2.28033z" fill="#fec7e4"/>
    <path d="m63.169273 167.40141 5.351955 1.20899-3.273087-3.90207z" fill="#ffc4e2"/>
    <path d="m63.169273 167.40141 3.543529 3.07105 1.808426-1.86206z" fill="#ffb8dd"/>
    <path d="m49.678725 172.0849 3.403309 1.1515-1.131515-4.96009z" fill="#f9a8d2"/>
    <path d="m53.082034 173.2364 2.196987-6.35472-3.328502 1.39463z" fill="#f396c6"/>
    <path d="m63.169273 167.40141 0.661457 7.48864 2.882072-4.41759z" fill="#f08fc2"/>
    <path d="m49.678725 172.0849 1.655167 3.1595 1.748142-2.008z" fill="#e17eb1"/>
    <path d="m66.712802 170.47246 5.383156 4.01787-3.57473-5.87993z" fill="#ffc3e2"/>
    <path d="m53.082034 173.2364 6.496464-5.64601-4.299477-0.70871z" fill="#e685b7"/>
    <path d="m59.578498 167.59039 4.252232 7.29966-0.661457-7.48864z" fill="#eb88bb"/>
    <path d="m69.169643 175.76413 2.926315-1.2738-5.383156-4.01787z" fill="#feb6dc"/>
    <path d="m63.83073 174.89005 5.338913 0.87408-2.456841-5.29167z" fill="#f08ec1"/>
    <path d="m49.678725 172.0849-0.06935 4.8604 1.724514-1.7009z" fill="#e582b5"/>
    <path d="m70.020091 177.55951 2.075867-3.06918-2.926315 1.2738z" fill="#ffb8dd"/>
    <path d="m65.447627 178.23209 3.722016-2.46796-5.338913-0.87408z" fill="#ea88bb"/>
    <path d="m72.162769 179.80231-0.06681-5.31198-2.075867 3.06918z" fill="#ffb8dd"/>
    <path d="m65.447627 178.23209 4.572464-0.67258-0.850448-1.79538z" fill="#f08ec1"/>
    <path d="m66.358447 181.31566 3.661644-3.75615-4.572464 0.67258z" fill="#d2699f"/>
    <path d="m66.358447 181.31566 5.804322-1.51335-2.142678-2.2428z" fill="#d26a9f"/>
    <path d="m66.015575 183.87816 6.147194-4.07585-5.804322 1.51335z" fill="#d56ea3"/>
    <path d="m45.936947 174.62395 3.672429 2.32135-6.512166-3.29019z" fill="#fed7ec"/>
   </g>
  </g>
 </g>
</svg>
